<svg xmlns="http://www.w3.org/2000/svg" viewBox="0 0 24 24" width="64" height="64">
  <!-- Cake Base -->
  <rect x="3" y="14" width="18" height="7" rx="2" fill="#8b5cf6" />
  <!-- Cake Frosting -->
  <rect x="4" y="9" width="16" height="5" rx="1.5" fill="#ec4899" />
  <!-- Candles -->
  <rect x="7" y="5" width="2" height="4" fill="#fbbf24" />
  <rect x="12" y="4" width="2" height="5" fill="#fbbf24" />
  <rect x="17" y="5" width="2" height="4" fill="#fbbf24" />
  <!-- Flames -->
  <path d="M8 2c0 .5-.2 1-.5 1.5s.5.3.5.7c0 .5-.3.8-.5 1.3" fill="#ef4444" stroke="#fbbf24" stroke-width="0.5"/>
  <path d="M13 1c0 .5-.2 1-.5 1.5s.5.3.5.7c0 .5-.3.8-.5 1.3" fill="#ef4444" stroke="#fbbf24" stroke-width="0.5"/>
  <path d="M18 2c0 .5-.2 1-.5 1.5s.5.3.5.7c0 .5-.3.8-.5 1.3" fill="#ef4444" stroke="#fbbf24" stroke-width="0.5"/>
</svg>